<svg xmlns="http://www.w3.org/2000/svg" viewBox="0 0 1600 1000" preserveAspectRatio="xMidYMid slice" aria-hidden="true">
  <defs>
    <radialGradient id="cavern" cx="50%" cy="50%" r="60%">
      <stop offset="0%" stop-color="#3a5d7a" stop-opacity="0.45"/>
      <stop offset="60%" stop-color="#1f3344" stop-opacity="0.15"/>
      <stop offset="100%" stop-color="#0e1318" stop-opacity="0"/>
    </radialGradient>
    <linearGradient id="depth" x1="0" y1="0" x2="0" y2="1">
      <stop offset="0%" stop-color="#0a0e14"/>
      <stop offset="100%" stop-color="#101820"/>
    </linearGradient>
  </defs>
  <rect width="1600" height="1000" fill="url(#depth)"/>
  <rect width="1600" height="1000" fill="url(#cavern)"/>
  <!-- Floating glowing rune circles -->
  <g fill="none" stroke="#b9d6e8" opacity="0.42">
    <circle cx="280" cy="320" r="58" stroke-width="0.8" stroke-dasharray="4 6"/>
    <circle cx="280" cy="320" r="42" stroke-width="0.6"/>
    <circle cx="1280" cy="240" r="70" stroke-width="0.8" stroke-dasharray="3 8"/>
    <circle cx="1280" cy="240" r="50" stroke-width="0.6"/>
    <circle cx="820" cy="560" r="90" stroke-width="0.8" stroke-dasharray="6 6"/>
    <circle cx="820" cy="560" r="62" stroke-width="0.6"/>
  </g>
  <g fill="#b9d6e8" opacity="0.55">
    <circle cx="280" cy="320" r="1.4"/>
    <circle cx="1280" cy="240" r="1.6"/>
    <circle cx="820" cy="560" r="2"/>
  </g>
  <!-- Stars -->
  <g fill="#fff6e0" opacity="0.7">
    <circle cx="120" cy="80" r="0.8"/><circle cx="240" cy="160" r="0.6"/>
    <circle cx="380" cy="60" r="1"/><circle cx="540" cy="180" r="0.6"/>
    <circle cx="680" cy="100" r="0.8"/><circle cx="820" cy="220" r="0.6"/>
    <circle cx="960" cy="80" r="1"/><circle cx="1100" cy="180" r="0.6"/>
    <circle cx="1240" cy="60" r="0.8"/><circle cx="1380" cy="200" r="0.6"/>
    <circle cx="1500" cy="120" r="0.8"/><circle cx="80" cy="240" r="0.6"/>
    <circle cx="320" cy="380" r="0.8"/><circle cx="600" cy="420" r="0.6"/>
    <circle cx="1020" cy="380" r="0.8"/><circle cx="1380" cy="430" r="0.6"/>
  </g>
</svg>
